<svg xmlns="http://www.w3.org/2000/svg" id="Camada_1" x="0" y="0" version="1.1" viewBox="0 0 145.33 45.45" xml:space="preserve">
  <path d="M11.18 22.34c-.55.26-1.75.57-3.3.57-4.04 0-6.49-2.53-6.49-6.42 0-4.19 2.93-6.72 6.82-6.72 1.53 0 2.6.32 3.07.57l-.49 1.85a6.3 6.3 0 00-2.49-.49c-2.59 0-4.46 1.62-4.46 4.68 0 2.81 1.62 4.59 4.44 4.59.93 0 1.91-.19 2.53-.45l.37 1.82zM17.38 9.97v12.72h-2.32V9.97h2.32zM24.47 19.09l-1.09 3.6h-2.4l4.08-12.72h2.96l4.13 12.72h-2.51l-1.15-3.6h-4.02zm3.64-1.76l-1-3.13c-.25-.77-.45-1.64-.64-2.38h-.04l-.6 2.38-.98 3.13h3.26zM35.81 10.16a20 20 0 013.51-.28c1.83 0 3.06.3 3.93 1.02a3.2 3.2 0 011.09 2.56 3.34 3.34 0 01-2.32 3.17v.06c.92.34 1.47 1.23 1.77 2.45.42 1.59.76 3.06 1 3.55h-2.38c-.19-.38-.51-1.41-.85-3-.38-1.66-.96-2.19-2.28-2.23h-1.17v5.23h-2.3V10.16zm2.31 5.61h1.38c1.57 0 2.53-.83 2.53-2.09 0-1.38-.96-2.04-2.47-2.04-.74 0-1.21.06-1.44.11v4.02z" class="st0"/>
  <g>
    <path d="M3.79 30.93c-.13.06-.39.13-.72.13-.77 0-1.34-.48-1.34-1.38 0-.86.58-1.43 1.42-1.43.33 0 .55.07.64.12l-.09.29a1.32 1.32 0 00-.54-.11c-.64 0-1.06.41-1.06 1.12 0 .67.38 1.09 1.04 1.09.22 0 .44-.04.58-.11l.07.28zM5.77 29.74H4.71v.98h1.18v.3H4.36V28.3h1.47v.29H4.71v.86h1.05v.29zM6.48 31.02V28.3h.39l.87 1.38c.2.32.36.6.48.88h.01c-.03-.36-.04-.69-.04-1.12V28.3h.33v2.72h-.36l-.86-1.39c-.19-.3-.37-.61-.5-.91h-.01c.02.34.03.67.03 1.12V31h-.34zM9.78 28.6h-.82v-.3h2.01v.3h-.83v2.42h-.36V28.6zM11.4 28.34c.18-.03.43-.06.67-.06.38 0 .62.07.79.22a.7.7 0 01.21.52c0 .35-.23.59-.51.69v.01c.21.07.33.27.39.55.09.38.15.64.21.75h-.36c-.05-.08-.1-.31-.18-.65-.08-.38-.23-.52-.55-.53h-.33v1.18h-.34v-2.68zm.35 1.23h.36c.38 0 .61-.21.61-.52 0-.35-.25-.5-.62-.5-.17 0-.29.01-.35.03v.99zM16.04 29.63c0 .93-.57 1.43-1.26 1.43-.72 0-1.22-.56-1.22-1.38 0-.86.53-1.43 1.26-1.43.74 0 1.22.57 1.22 1.38zm-2.11.04c0 .58.31 1.1.87 1.1s.87-.51.87-1.13c0-.54-.28-1.11-.87-1.11-.58.01-.87.55-.87 1.14zM17.97 28.3v2.72h-.36V28.3h.36zM18.71 31.02V28.3h.39l.87 1.38c.2.32.36.6.48.88h.01c-.03-.36-.04-.69-.04-1.12V28.3h.33v2.72h-.35l-.86-1.38c-.19-.3-.37-.61-.5-.91h-.01c.02.34.03.67.03 1.12v1.16h-.35zM22.01 28.6h-.83v-.3h2.01v.3h-.83v2.42h-.35V28.6zM25.03 29.74h-1.05v.98h1.18v.3h-1.53V28.3h1.47v.29h-1.12v.86h1.05v.29zM27.82 30.89c-.16.06-.47.15-.84.15-.41 0-.75-.11-1.02-.36a1.42 1.42 0 01-.38-1.01c0-.81.56-1.4 1.47-1.4.31 0 .56.07.68.12l-.09.29a1.35 1.35 0 00-.6-.12c-.66 0-1.09.41-1.09 1.09 0 .69.41 1.09 1.05 1.09.23 0 .39-.03.47-.07v-.81h-.55v-.28h.89v1.31zM28.49 28.34c.18-.03.44-.06.67-.06.38 0 .62.07.79.22a.7.7 0 01.21.52c0 .35-.23.59-.5.69v.01c.2.07.33.27.39.55.09.38.15.64.21.75h-.36c-.05-.08-.1-.31-.18-.65-.08-.38-.23-.52-.55-.53h-.33v1.18h-.35v-2.68zm.35 1.23h.36c.38 0 .61-.21.61-.52 0-.35-.25-.5-.63-.5-.17 0-.29.01-.35.03v.99zM31.25 30.16l-.28.86h-.37l.93-2.72h.42l.93 2.72h-.38l-.29-.86h-.96zm.89-.27l-.27-.78-.14-.5h-.01c-.04.16-.08.33-.14.49l-.27.78h.83zM33.41 28.34c.22-.04.47-.06.75-.06.5 0 .86.12 1.1.34.24.22.39.54.39.97 0 .44-.14.81-.39 1.05-.26.26-.68.39-1.21.39-.25 0-.46-.01-.64-.03v-2.66zm.35 2.4l.35.01c.75 0 1.16-.42 1.16-1.15 0-.64-.36-1.05-1.1-1.05-.18 0-.32.02-.41.03v2.16zM38.55 29.63c0 .93-.57 1.43-1.26 1.43-.72 0-1.22-.56-1.22-1.38 0-.86.53-1.43 1.26-1.43.74 0 1.22.57 1.22 1.38zm-2.11.04c0 .58.32 1.1.87 1.1.56 0 .87-.51.87-1.13 0-.54-.28-1.11-.87-1.11-.58.01-.87.55-.87 1.14zM40.12 28.34c.21-.04.47-.06.75-.06.5 0 .86.12 1.1.34.24.22.39.54.39.97 0 .44-.14.81-.39 1.05-.26.26-.68.39-1.2.39-.26 0-.46-.01-.64-.03v-2.66zm.35 2.4l.36.01c.75 0 1.16-.42 1.16-1.15.01-.64-.36-1.05-1.1-1.05-.18 0-.32.02-.41.03v2.16zM44.34 29.74h-1.05v.98h1.17v.3h-1.53V28.3h1.47v.29h-1.11v.86h1.05v.29zM2.21 35l-.28.85h-.37l.93-2.72h.42l.93 2.72h-.38L3.17 35h-.96zm.89-.28l-.27-.78-.14-.5h-.01c-.04.16-.08.33-.14.49l-.27.78h.83zM4.23 33.17c.17-.03.39-.05.67-.05.35 0 .6.08.76.22.14.13.24.33.24.57 0 .25-.07.44-.21.58-.19.2-.49.3-.83.3-.1 0-.2 0-.28-.02v1.09h-.35v-2.69zm.36 1.31c.08.02.17.03.29.03.42 0 .68-.21.68-.58 0-.36-.26-.53-.64-.53-.15 0-.27.01-.33.03v1.05zM6.38 33.17c.18-.03.43-.06.67-.06.37 0 .62.07.78.22a.7.7 0 01.21.52c0 .35-.22.59-.51.69v.01c.2.07.33.26.4.55.09.38.15.64.21.75h-.35a2.8 2.8 0 01-.18-.65c-.08-.37-.23-.51-.55-.53h-.33v1.18h-.35v-2.68zm.35 1.24h.36c.37 0 .61-.2.61-.51 0-.35-.26-.5-.63-.5-.17 0-.29.01-.35.03v.98zM9.95 34.58H8.9v.98h1.18v.3H8.54v-2.72h1.47v.29H8.9v.86h1.05v.29zM10.53 35.85v-2.72h.39l.87 1.38c.2.32.36.6.48.88h.01c-.03-.36-.04-.69-.04-1.12v-1.14h.33v2.72h-.36l-.86-1.38c-.19-.3-.37-.61-.51-.91h-.01c.02.34.03.67.03 1.12v1.16h-.33zM13.19 33.18c.21-.04.47-.06.75-.06.5 0 .86.12 1.1.34.25.22.39.53.39.97 0 .44-.14.81-.39 1.06-.26.25-.68.39-1.21.39-.26 0-.46-.01-.64-.03v-2.67zm.34 2.4l.36.02c.75 0 1.16-.42 1.16-1.15 0-.64-.36-1.04-1.1-1.04-.18 0-.32.01-.41.03v2.14zM16.22 33.14v2.72h-.36v-2.72h.36zM16.65 35.65l1.5-2.21v-.01h-1.38v-.29h1.83v.21l-1.5 2.2v.01h1.52v.3h-1.98v-.21zM19.5 35l-.28.85h-.36l.93-2.72h.42l.93 2.72h-.38l-.3-.85h-.96zm.9-.28l-.27-.78-.14-.5h-.01l-.13.49-.27.78h.82zM23.54 35.73c-.16.06-.47.15-.84.15-.41 0-.75-.1-1.02-.36a1.4 1.4 0 01-.38-1.01c0-.81.56-1.4 1.47-1.4.32 0 .56.07.68.13l-.09.29a1.35 1.35 0 00-.6-.12c-.66 0-1.09.41-1.09 1.09 0 .69.41 1.1 1.05 1.1.23 0 .39-.03.47-.08v-.81h-.55v-.28h.89v1.3zM25.47 34.58h-1.05v.98h1.18v.3h-1.53v-2.72h1.47v.29h-1.11v.86h1.05v.29zM28.34 34.66c-.02-.38-.04-.84-.04-1.17h-.01c-.1.31-.2.66-.34 1.03l-.48 1.32h-.27l-.44-1.29c-.13-.39-.23-.73-.31-1.05h-.01l-.05 1.2-.07 1.16h-.33l.19-2.72h.45l.46 1.31c.11.33.2.63.27.92h.01c.07-.27.17-.57.29-.92l.48-1.31h.45l.17 2.72h-.35l-.07-1.2zM31.55 34.58H30.5v.98h1.18v.3h-1.53v-2.72h1.47v.29H30.5v.86h1.05v.29zM34.42 34.66c-.02-.38-.04-.84-.04-1.17h-.01c-.1.31-.2.66-.34 1.03l-.48 1.32h-.26l-.44-1.29c-.13-.39-.23-.73-.31-1.05h-.01l-.05 1.2-.07 1.16h-.33l.19-2.72h.45l.46 1.31c.11.33.2.63.27.92h.01c.07-.27.17-.57.29-.92l.48-1.31h.45l.17 2.72h-.35l-.08-1.2zM36.23 33.17c.18-.03.44-.06.67-.06.37 0 .62.07.79.22a.7.7 0 01.21.52c0 .35-.23.59-.51.69v.01c.2.07.33.26.39.55.09.38.15.64.21.75h-.36c-.05-.08-.1-.31-.18-.65-.08-.37-.23-.51-.55-.53h-.33v1.18h-.35v-2.68zm.35 1.24h.36c.38 0 .61-.2.61-.51 0-.35-.25-.5-.62-.5-.17 0-.29.01-.35.03v.98zM39.8 34.58h-1.05v.98h1.18v.3H38.4v-2.72h1.47v.29h-1.11v.86h1.05v.29zM40.38 33.18c.21-.04.47-.06.75-.06.5 0 .86.12 1.1.34.25.22.39.53.39.97 0 .44-.14.81-.39 1.06-.26.25-.68.39-1.21.39-.25 0-.46-.01-.64-.03v-2.67zm.35 2.4l.36.02c.75 0 1.15-.42 1.15-1.15 0-.64-.36-1.04-1.1-1.04-.18 0-.32.01-.41.03v2.14zM44.47 34.58h-1.05v.98h1.18v.3h-1.53v-2.72h1.47v.29h-1.12v.86h1.05v.29z" class="st0"/>
  </g>
  <path d="M67.11 17.43l3.28 1.9 3.28 1.9v7.58l-3.28 1.9-3.28 1.9-3.28-1.9-3.28-1.9v-7.58l3.28-1.9 3.28-1.9zm6.58-9.87l-2.63 1.52-2.63 1.52v6.06l2.63 1.52 2.63 1.52 2.63-1.52 2.63-1.52V10.6l-2.63-1.52-2.63-1.52zm3.95 23.54l1.98 1.13 1.98 1.14v4.54l-1.98 1.14-1.98 1.13-1.98-1.13-1.98-1.14v-4.54l1.98-1.14 1.98-1.13zm17.1-12.9l2.63 1.52 2.63 1.52v6.06l-2.63 1.52-2.63 1.52-2.64-1.52-2.63-1.52v-6.06l2.63-1.52 2.64-1.52zM89.33 1.39l-3.95 2.28-3.95 2.28v9.1l3.95 2.28 3.95 2.28 3.95-2.28 3.95-2.28v-9.1l-3.95-2.28-3.95-2.28zm.14 27.42l-3.29 1.9-3.29 1.9v7.6l3.29 1.9 3.29 1.9 3.29-1.9 3.29-1.9v-7.6l-3.29-1.9-3.29-1.9z" class="st1"/>
  <path d="M104.57 10.01v7.53c0 1.43.22 2.6.64 3.51a4.2 4.2 0 001.84 2.03c.8.44 1.77.66 2.91.65 1.18 0 2.19-.22 3.03-.67a4.45 4.45 0 001.93-2.04c.44-.91.67-2.05.67-3.44v-7.57h-3.04v7.75c0 1.2-.22 2.09-.64 2.66-.42.58-1.04.86-1.84.86-.78 0-1.38-.29-1.8-.88a4.55 4.55 0 01-.64-2.64v-7.75h-3.06zm15.53 13.5h3.04v-5.43h4.85V15.6h-4.85v-3.08h5.18v-2.5h-8.23v13.49h.01zm23.26-7.71h-5.03v2.38h2.08V21c-.12.05-.32.09-.57.13a7.9 7.9 0 01-.91.05c-.63 0-1.2-.1-1.72-.29a3.8 3.8 0 01-2.23-2.24 5.13 5.13 0 01-.31-1.87c0-.73.12-1.37.34-1.92.22-.55.54-1.01.94-1.37a4.1 4.1 0 011.42-.82 5.57 5.57 0 011.77-.27c.49 0 .93.03 1.3.07a6.4 6.4 0 011.82.51l.64-2.49a10.34 10.34 0 00-2.15-.53c-.48-.06-1.02-.09-1.6-.1-1.11 0-2.14.16-3.07.47-.93.31-1.75.77-2.44 1.37a6.11 6.11 0 00-1.61 2.22 7.7 7.7 0 00-.59 3.01c0 .66.07 1.29.22 1.89.15.6.36 1.15.64 1.66a5.75 5.75 0 003.32 2.7c.91.3 1.97.46 3.2.46.6 0 1.19-.05 1.75-.13a17.54 17.54 0 002.75-.63V15.8z" class="st0"/>
  <g>
    <path d="M104.54 28.09v1.7c0 .97.45 1.4 1.22 1.4.8 0 1.27-.45 1.27-1.39v-1.71h-.69v1.76c0 .54-.2.8-.56.8-.35 0-.55-.27-.55-.8v-1.76h-.69zm4.5 3.05v-.92c0-.5-.01-.93-.03-1.34h.02c.15.36.35.75.53 1.08l.65 1.18h.73v-3.06h-.64v.89c0 .46.01.88.05 1.28h-.01a10.1 10.1 0 00-.5-1.05l-.63-1.12h-.81v3.06h.64zm3.26-3.05v3.06h.69v-3.06h-.69zm3.58 3.05l1.03-3.06h-.73l-.39 1.31c-.1.35-.2.71-.28 1.08h-.01c-.07-.38-.17-.72-.27-1.09l-.37-1.29h-.76l.98 3.06h.8v-.01zm3.94-1.85h-1.12v-.63h1.19v-.57h-1.88v3.06h1.95v-.57h-1.26v-.73h1.12v-.56zm1.37 1.85h.69v-1.21h.2c.29 0 .42.11.5.49.09.38.16.63.21.72h.71c-.06-.12-.15-.52-.25-.87-.08-.28-.2-.48-.41-.57v-.01c.26-.1.54-.36.54-.75 0-.28-.1-.49-.29-.64-.22-.18-.53-.24-.99-.24-.37 0-.7.03-.92.07v3.01h.01zm.69-2.54c.05-.01.14-.02.31-.02.32 0 .51.14.51.42 0 .27-.2.44-.55.44h-.27v-.84zm2.65 2.4c.17.1.52.19.87.19.84 0 1.23-.44 1.23-.95 0-.44-.25-.72-.79-.92-.4-.16-.57-.24-.57-.44 0-.15.15-.29.44-.29.29 0 .52.09.63.15l.15-.55a1.73 1.73 0 00-.78-.15c-.72 0-1.16.4-1.16.92 0 .45.33.73.84.91.37.13.51.24.51.43 0 .2-.17.34-.48.34-.3 0-.58-.1-.77-.19l-.12.55zm3.34-2.91v3.06h.69v-3.06h-.69zm2.05 3.04c.17.02.43.04.79.04.6 0 1.09-.13 1.42-.4.29-.25.5-.65.5-1.24 0-.54-.2-.92-.52-1.16-.29-.22-.67-.32-1.26-.32-.34 0-.68.02-.93.07v3.01zm.69-2.51c.06-.01.16-.03.31-.03.6 0 .97.31.97.97 0 .73-.41 1.07-1.04 1.07-.08 0-.18 0-.24-.02v-1.99zm4.82 1.74l.24.79h.74l-.95-3.06h-.9l-.94 3.06h.72l.21-.79h.88zm-.78-.52l.19-.65.14-.59h.01l.15.59.19.65h-.68zm2.93 1.29c.17.02.43.04.78.04.6 0 1.09-.13 1.42-.4.29-.25.5-.65.5-1.24 0-.54-.2-.92-.52-1.16-.29-.22-.67-.32-1.26-.32-.34 0-.68.02-.93.07v3.01h.01zm.69-2.51c.06-.01.16-.03.31-.03.6 0 .97.31.97.97 0 .73-.41 1.07-1.04 1.07-.08 0-.18 0-.24-.02v-1.99zm5.06.67h-1.13v-.63h1.19v-.57h-1.88v3.06h1.95v-.57h-1.26v-.73h1.13v-.56zM104.53 36.35h.69v-1.23h1.1v-.56h-1.1v-.7h1.18v-.56h-1.86v3.05h-.01zm4.08-1.85h-1.13v-.63h1.19v-.57h-1.88v3.06h1.95v-.57h-1.26v-.73h1.13v-.56zm.6 1.84c.17.02.43.05.78.05.6 0 1.1-.12 1.42-.39.29-.25.51-.65.51-1.24 0-.55-.2-.92-.52-1.16-.29-.22-.67-.32-1.26-.32-.35 0-.68.02-.93.07v2.99zm.69-2.51c.06-.01.16-.03.31-.03.6 0 .97.31.97.97 0 .73-.41 1.07-1.04 1.07l-.24-.01v-2zm4.29.67h-1.12v-.63h1.19v-.57h-1.88v3.06h1.95v-.57h-1.26v-.73h1.12v-.56zm.6 1.85h.69v-1.21h.2c.29 0 .42.1.5.49.08.38.16.63.21.71h.71c-.06-.12-.15-.52-.25-.87-.08-.28-.19-.48-.41-.57v-.01c.26-.1.54-.36.54-.75 0-.28-.1-.49-.29-.64-.22-.17-.53-.24-.99-.24-.37 0-.7.03-.92.07v3.02h.01zm.69-2.53c.05-.02.15-.02.31-.02.32 0 .51.14.51.42 0 .27-.21.44-.55.44h-.27v-.84zm3.63 1.75l.24.78h.74l-.95-3.06h-.9l-.93 3.06h.72l.21-.78h.87zm-.78-.52l.19-.65.14-.59h.01l.15.59.19.65h-.68zm2.13 1.3h1.91v-.58h-1.22V33.3h-.69v3.05zm3.36-.01c.17.02.43.05.79.05.6 0 1.09-.13 1.42-.39.29-.25.5-.65.5-1.24 0-.55-.2-.93-.52-1.16-.29-.22-.67-.32-1.26-.32-.34 0-.68.02-.93.07v2.99zm.69-2.51c.06-.01.16-.03.31-.03.6 0 .97.31.97.97 0 .73-.41 1.07-1.04 1.07l-.24-.01v-2zm4.29.67h-1.13v-.63h1.19v-.57h-1.88v3.06h1.95v-.57h-1.26v-.73h1.13v-.56zm4.66.11h-1.14v.54h.47v.64a1.1 1.1 0 01-.33.04c-.57 0-.97-.36-.97-1 0-.67.44-.99 1.02-.99.33 0 .54.05.71.13l.14-.56a2.4 2.4 0 00-.85-.14c-1 0-1.74.58-1.75 1.6 0 .45.15.84.43 1.11.28.27.69.41 1.24.41.4 0 .81-.1 1.02-.17v-1.61h.01zm1.84 1.8c.89 0 1.5-.61 1.5-1.61 0-.84-.51-1.55-1.45-1.55-.9 0-1.49.68-1.49 1.6 0 .87.54 1.56 1.44 1.56zm.03-.55c-.46 0-.74-.45-.74-1.03 0-.57.27-1.03.75-1.03s.73.47.73 1.02c0 .6-.27 1.04-.74 1.04zm1.93-2.56v3.06h.69V33.3h-.69zm2.88 2.27l.24.78h.74l-.95-3.06h-.9l-.93 3.06h.72l.21-.78h.87zm-.78-.52l.19-.65.14-.59h.01l.15.59.19.65h-.68zm.46-2.49l-.4.57h.55l.57-.57h-.72zm1.59 3.65c.17.1.52.19.87.19.84 0 1.23-.44 1.23-.95 0-.44-.25-.72-.79-.92-.4-.15-.57-.24-.57-.44 0-.15.15-.29.45-.29.29 0 .52.08.63.15l.15-.55a1.73 1.73 0 00-.78-.15c-.72 0-1.16.4-1.16.92 0 .45.34.73.84.91.37.13.51.24.51.43 0 .2-.17.34-.49.34-.29 0-.58-.1-.77-.19l-.12.55z" class="st1"/>
  </g>
</svg>