<?xml version="1.0" encoding="utf-8"?>
<!-- Generator: Adobe Illustrator 23.0.3, SVG Export Plug-In . SVG Version: 6.00 Build 0)  -->
<svg version="1.1" id="Camada_1" xmlns="http://www.w3.org/2000/svg" xmlns:xlink="http://www.w3.org/1999/xlink" x="0px" y="0px"
	 viewBox="0 0 145.33 45.45" style="enable-background:new 0 0 145.33 45.45;" xml:space="preserve">
<style type="text/css">
	.st0{fill:#000;}
	.st1{fill-rule:evenodd;clip-rule:evenodd;fill:#000;}
</style>
<g>
	<g>
		<g>
			<path class="st0" d="M11.18,22.34c-0.55,0.26-1.75,0.57-3.3,0.57c-4.04,0-6.49-2.53-6.49-6.42c0-4.19,2.93-6.72,6.82-6.72
				c1.53,0,2.6,0.32,3.07,0.57l-0.49,1.85c-0.6-0.26-1.45-0.49-2.49-0.49c-2.59,0-4.46,1.62-4.46,4.68c0,2.81,1.62,4.59,4.44,4.59
				c0.93,0,1.91-0.19,2.53-0.45L11.18,22.34z"/>
			<path class="st0" d="M17.38,9.97v12.72h-2.32V9.97H17.38z"/>
			<path class="st0" d="M24.47,19.09l-1.09,3.6h-2.4l4.08-12.72h2.96l4.13,12.72h-2.51l-1.15-3.6H24.47z M28.11,17.33l-1-3.13
				c-0.25-0.77-0.45-1.64-0.64-2.38h-0.04c-0.19,0.74-0.4,1.62-0.6,2.38l-0.98,3.13H28.11z"/>
			<path class="st0" d="M35.81,10.16c0.89-0.17,2.17-0.28,3.51-0.28c1.83,0,3.06,0.3,3.93,1.02c0.7,0.58,1.09,1.47,1.09,2.56
				c0,1.64-1.11,2.75-2.32,3.17v0.06c0.92,0.34,1.47,1.23,1.77,2.45c0.42,1.59,0.76,3.06,1,3.55h-2.38c-0.19-0.38-0.51-1.41-0.85-3
				c-0.38-1.66-0.96-2.19-2.28-2.23h-1.17v5.23h-2.3V10.16z M38.12,15.77h1.38c1.57,0,2.53-0.83,2.53-2.09
				c0-1.38-0.96-2.04-2.47-2.04c-0.74,0-1.21,0.06-1.44,0.11V15.77z"/>
		</g>
		<g>
			<g>
				<path class="st0" d="M3.79,30.93c-0.13,0.06-0.39,0.13-0.72,0.13c-0.77,0-1.34-0.48-1.34-1.38c0-0.86,0.58-1.43,1.42-1.43
					c0.33,0,0.55,0.07,0.64,0.12l-0.09,0.29c-0.13-0.06-0.32-0.11-0.54-0.11c-0.64,0-1.06,0.41-1.06,1.12
					c0,0.67,0.38,1.09,1.04,1.09c0.22,0,0.44-0.04,0.58-0.11L3.79,30.93z"/>
				<path class="st0" d="M5.77,29.74H4.71v0.98h1.18v0.3H4.36V28.3h1.47v0.29H4.71v0.86h1.05V29.74z"/>
				<path class="st0" d="M6.48,31.02V28.3h0.39l0.87,1.38c0.2,0.32,0.36,0.6,0.48,0.88l0.01,0c-0.03-0.36-0.04-0.69-0.04-1.12V28.3
					h0.33v2.72H8.16L7.3,29.63c-0.19-0.3-0.37-0.61-0.5-0.91l-0.01,0c0.02,0.34,0.03,0.67,0.03,1.12v1.16H6.48z"/>
				<path class="st0" d="M9.78,28.6H8.96v-0.3h2.01v0.3h-0.83v2.42H9.78V28.6z"/>
				<path class="st0" d="M11.4,28.34c0.18-0.03,0.43-0.06,0.67-0.06c0.38,0,0.62,0.07,0.79,0.22c0.13,0.12,0.21,0.31,0.21,0.52
					c0,0.35-0.23,0.59-0.51,0.69v0.01c0.21,0.07,0.33,0.27,0.39,0.55c0.09,0.38,0.15,0.64,0.21,0.75h-0.36
					c-0.05-0.08-0.1-0.31-0.18-0.65c-0.08-0.38-0.23-0.52-0.55-0.53h-0.33v1.18H11.4V28.34z M11.75,29.57h0.36
					c0.38,0,0.61-0.21,0.61-0.52c0-0.35-0.25-0.5-0.62-0.5c-0.17,0-0.29,0.01-0.35,0.03V29.57z"/>
				<path class="st0" d="M16.04,29.63c0,0.93-0.57,1.43-1.26,1.43c-0.72,0-1.22-0.56-1.22-1.38c0-0.86,0.53-1.43,1.26-1.43
					C15.56,28.25,16.04,28.82,16.04,29.63z M13.93,29.67c0,0.58,0.31,1.1,0.87,1.1c0.56,0,0.87-0.51,0.87-1.13
					c0-0.54-0.28-1.11-0.87-1.11C14.22,28.54,13.93,29.08,13.93,29.67z"/>
				<path class="st0" d="M17.97,28.3v2.72h-0.36V28.3H17.97z"/>
				<path class="st0" d="M18.71,31.02V28.3h0.39l0.87,1.38c0.2,0.32,0.36,0.6,0.48,0.88l0.01,0c-0.03-0.36-0.04-0.69-0.04-1.12V28.3
					h0.33v2.72H20.4l-0.86-1.38c-0.19-0.3-0.37-0.61-0.5-0.91l-0.01,0c0.02,0.34,0.03,0.67,0.03,1.12v1.16H18.71z"/>
				<path class="st0" d="M22.01,28.6h-0.83v-0.3h2.01v0.3h-0.83v2.42h-0.35V28.6z"/>
				<path class="st0" d="M25.03,29.74h-1.05v0.98h1.18v0.3h-1.53V28.3h1.47v0.29h-1.12v0.86h1.05V29.74z"/>
				<path class="st0" d="M27.82,30.89c-0.16,0.06-0.47,0.15-0.84,0.15c-0.41,0-0.75-0.11-1.02-0.36c-0.23-0.23-0.38-0.59-0.38-1.01
					c0-0.81,0.56-1.4,1.47-1.4c0.31,0,0.56,0.07,0.68,0.12l-0.09,0.29c-0.15-0.07-0.33-0.12-0.6-0.12c-0.66,0-1.09,0.41-1.09,1.09
					c0,0.69,0.41,1.09,1.05,1.09c0.23,0,0.39-0.03,0.47-0.07v-0.81h-0.55v-0.28h0.89V30.89z"/>
				<path class="st0" d="M28.49,28.34c0.18-0.03,0.44-0.06,0.67-0.06c0.38,0,0.62,0.07,0.79,0.22c0.13,0.12,0.21,0.31,0.21,0.52
					c0,0.35-0.23,0.59-0.5,0.69v0.01c0.2,0.07,0.33,0.27,0.39,0.55c0.09,0.38,0.15,0.64,0.21,0.75h-0.36
					c-0.05-0.08-0.1-0.31-0.18-0.65c-0.08-0.38-0.23-0.52-0.55-0.53h-0.33v1.18h-0.35V28.34z M28.84,29.57h0.36
					c0.38,0,0.61-0.21,0.61-0.52c0-0.35-0.25-0.5-0.63-0.5c-0.17,0-0.29,0.01-0.35,0.03V29.57z"/>
				<path class="st0" d="M31.25,30.16l-0.28,0.86H30.6l0.93-2.72h0.42l0.93,2.72H32.5l-0.29-0.86H31.25z M32.14,29.89l-0.27-0.78
					c-0.06-0.18-0.1-0.34-0.14-0.5h-0.01c-0.04,0.16-0.08,0.33-0.14,0.49l-0.27,0.78H32.14z"/>
				<path class="st0" d="M33.41,28.34c0.22-0.04,0.47-0.06,0.75-0.06c0.5,0,0.86,0.12,1.1,0.34c0.24,0.22,0.39,0.54,0.39,0.97
					c0,0.44-0.14,0.81-0.39,1.05c-0.26,0.26-0.68,0.39-1.21,0.39c-0.25,0-0.46-0.01-0.64-0.03V28.34z M33.76,30.74
					c0.09,0.01,0.22,0.01,0.35,0.01c0.75,0,1.16-0.42,1.16-1.15c0-0.64-0.36-1.05-1.1-1.05c-0.18,0-0.32,0.02-0.41,0.03V30.74z"/>
				<path class="st0" d="M38.55,29.63c0,0.93-0.57,1.43-1.26,1.43c-0.72,0-1.22-0.56-1.22-1.38c0-0.86,0.53-1.43,1.26-1.43
					C38.07,28.25,38.55,28.82,38.55,29.63z M36.44,29.67c0,0.58,0.32,1.1,0.87,1.1c0.56,0,0.87-0.51,0.87-1.13
					c0-0.54-0.28-1.11-0.87-1.11C36.73,28.54,36.44,29.08,36.44,29.67z"/>
				<path class="st0" d="M40.12,28.34c0.21-0.04,0.47-0.06,0.75-0.06c0.5,0,0.86,0.12,1.1,0.34c0.24,0.22,0.39,0.54,0.39,0.97
					c0,0.44-0.14,0.81-0.39,1.05c-0.26,0.26-0.68,0.39-1.2,0.39c-0.26,0-0.46-0.01-0.64-0.03V28.34z M40.47,30.74
					c0.09,0.01,0.22,0.01,0.36,0.01c0.75,0,1.16-0.42,1.16-1.15c0.01-0.64-0.36-1.05-1.1-1.05c-0.18,0-0.32,0.02-0.41,0.03V30.74z"
					/>
				<path class="st0" d="M44.34,29.74h-1.05v0.98h1.17v0.3h-1.53V28.3h1.47v0.29h-1.11v0.86h1.05V29.74z"/>
				<path class="st0" d="M2.21,35l-0.28,0.85H1.56l0.93-2.72h0.42l0.93,2.72H3.46L3.17,35H2.21z M3.1,34.72l-0.27-0.78
					c-0.06-0.18-0.1-0.34-0.14-0.5H2.68c-0.04,0.16-0.08,0.33-0.14,0.49l-0.27,0.78H3.1z"/>
				<path class="st0" d="M4.23,33.17c0.17-0.03,0.39-0.05,0.67-0.05c0.35,0,0.6,0.08,0.76,0.22c0.14,0.13,0.24,0.33,0.24,0.57
					c0,0.25-0.07,0.44-0.21,0.58c-0.19,0.2-0.49,0.3-0.83,0.3c-0.1,0-0.2,0-0.28-0.02v1.09H4.23V33.17z M4.59,34.48
					c0.08,0.02,0.17,0.03,0.29,0.03c0.42,0,0.68-0.21,0.68-0.58c0-0.36-0.26-0.53-0.64-0.53c-0.15,0-0.27,0.01-0.33,0.03V34.48z"/>
				<path class="st0" d="M6.38,33.17c0.18-0.03,0.43-0.06,0.67-0.06c0.37,0,0.62,0.07,0.78,0.22c0.13,0.12,0.21,0.31,0.21,0.52
					c0,0.35-0.22,0.59-0.51,0.69v0.01c0.2,0.07,0.33,0.26,0.4,0.55c0.09,0.38,0.15,0.64,0.21,0.75H7.79
					c-0.05-0.08-0.11-0.31-0.18-0.65c-0.08-0.37-0.23-0.51-0.55-0.53H6.73v1.18H6.38V33.17z M6.73,34.41h0.36
					c0.37,0,0.61-0.2,0.61-0.51c0-0.35-0.26-0.5-0.63-0.5c-0.17,0-0.29,0.01-0.35,0.03V34.41z"/>
				<path class="st0" d="M9.95,34.58H8.9v0.98h1.18v0.3H8.54v-2.72h1.47v0.29H8.9v0.86h1.05V34.58z"/>
				<path class="st0" d="M10.53,35.85v-2.72h0.39l0.87,1.38c0.2,0.32,0.36,0.6,0.48,0.88l0.01,0c-0.03-0.36-0.04-0.69-0.04-1.12
					v-1.14h0.33v2.72h-0.36l-0.86-1.38c-0.19-0.3-0.37-0.61-0.51-0.91l-0.01,0c0.02,0.34,0.03,0.67,0.03,1.12v1.16H10.53z"/>
				<path class="st0" d="M13.19,33.18c0.21-0.04,0.47-0.06,0.75-0.06c0.5,0,0.86,0.12,1.1,0.34c0.25,0.22,0.39,0.53,0.39,0.97
					c0,0.44-0.14,0.81-0.39,1.06c-0.26,0.25-0.68,0.39-1.21,0.39c-0.26,0-0.46-0.01-0.64-0.03V33.18z M13.53,35.58
					c0.09,0.01,0.22,0.02,0.36,0.02c0.75,0,1.16-0.42,1.16-1.15c0-0.64-0.36-1.04-1.1-1.04c-0.18,0-0.32,0.01-0.41,0.03V35.58z"/>
				<path class="st0" d="M16.22,33.14v2.72h-0.36v-2.72H16.22z"/>
				<path class="st0" d="M16.65,35.65l1.5-2.21v-0.01h-1.38v-0.29h1.83v0.21l-1.5,2.2v0.01h1.52v0.3h-1.98V35.65z"/>
				<path class="st0" d="M19.5,35l-0.28,0.85h-0.36l0.93-2.72h0.42l0.93,2.72h-0.38L20.46,35H19.5z M20.4,34.72l-0.27-0.78
					c-0.06-0.18-0.1-0.34-0.14-0.5h-0.01c-0.04,0.16-0.08,0.33-0.13,0.49l-0.27,0.78H20.4z"/>
				<path class="st0" d="M23.54,35.73c-0.16,0.06-0.47,0.15-0.84,0.15c-0.41,0-0.75-0.1-1.02-0.36c-0.23-0.22-0.38-0.59-0.38-1.01
					c0-0.81,0.56-1.4,1.47-1.4c0.32,0,0.56,0.07,0.68,0.13l-0.09,0.29c-0.15-0.07-0.33-0.12-0.6-0.12c-0.66,0-1.09,0.41-1.09,1.09
					c0,0.69,0.41,1.1,1.05,1.1c0.23,0,0.39-0.03,0.47-0.08v-0.81h-0.55v-0.28h0.89V35.73z"/>
				<path class="st0" d="M25.47,34.58h-1.05v0.98h1.18v0.3h-1.53v-2.72h1.47v0.29h-1.11v0.86h1.05V34.58z"/>
				<path class="st0" d="M28.34,34.66c-0.02-0.38-0.04-0.84-0.04-1.17h-0.01c-0.1,0.31-0.2,0.66-0.34,1.03l-0.48,1.32H27.2
					l-0.44-1.29c-0.13-0.39-0.23-0.73-0.31-1.05h-0.01c-0.01,0.34-0.03,0.79-0.05,1.2l-0.07,1.16h-0.33l0.19-2.72h0.45l0.46,1.31
					c0.11,0.33,0.2,0.63,0.27,0.92h0.01c0.07-0.27,0.17-0.57,0.29-0.92l0.48-1.31h0.45l0.17,2.72h-0.35L28.34,34.66z"/>
				<path class="st0" d="M31.55,34.58H30.5v0.98h1.18v0.3h-1.53v-2.72h1.47v0.29H30.5v0.86h1.05V34.58z"/>
				<path class="st0" d="M34.42,34.66c-0.02-0.38-0.04-0.84-0.04-1.17h-0.01c-0.1,0.31-0.2,0.66-0.34,1.03l-0.48,1.32h-0.26
					l-0.44-1.29c-0.13-0.39-0.23-0.73-0.31-1.05h-0.01c-0.01,0.34-0.03,0.79-0.05,1.2l-0.07,1.16h-0.33l0.19-2.72h0.45l0.46,1.31
					c0.11,0.33,0.2,0.63,0.27,0.92h0.01c0.07-0.27,0.17-0.57,0.29-0.92l0.48-1.31h0.45l0.17,2.72h-0.35L34.42,34.66z"/>
				<path class="st0" d="M36.23,33.17c0.18-0.03,0.44-0.06,0.67-0.06c0.37,0,0.62,0.07,0.79,0.22c0.13,0.12,0.21,0.31,0.21,0.52
					c0,0.35-0.23,0.59-0.51,0.69v0.01c0.2,0.07,0.33,0.26,0.39,0.55c0.09,0.38,0.15,0.64,0.21,0.75h-0.36
					c-0.05-0.08-0.1-0.31-0.18-0.65c-0.08-0.37-0.23-0.51-0.55-0.53h-0.33v1.18h-0.35V33.17z M36.58,34.41h0.36
					c0.38,0,0.61-0.2,0.61-0.51c0-0.35-0.25-0.5-0.62-0.5c-0.17,0-0.29,0.01-0.35,0.03V34.41z"/>
				<path class="st0" d="M39.8,34.58h-1.05v0.98h1.18v0.3H38.4v-2.72h1.47v0.29h-1.11v0.86h1.05V34.58z"/>
				<path class="st0" d="M40.38,33.18c0.21-0.04,0.47-0.06,0.75-0.06c0.5,0,0.86,0.12,1.1,0.34c0.25,0.22,0.39,0.53,0.39,0.97
					c0,0.44-0.14,0.81-0.39,1.06c-0.26,0.25-0.68,0.39-1.21,0.39c-0.25,0-0.46-0.01-0.64-0.03V33.18z M40.73,35.58
					c0.09,0.01,0.22,0.02,0.36,0.02c0.75,0,1.15-0.42,1.15-1.15c0-0.64-0.36-1.04-1.1-1.04c-0.18,0-0.32,0.01-0.41,0.03V35.58z"/>
				<path class="st0" d="M44.47,34.58h-1.05v0.98h1.18v0.3h-1.53v-2.72h1.47v0.29h-1.12v0.86h1.05V34.58z"/>
			</g>
		</g>
	</g>
	<path class="st1" d="M67.11,17.43l3.28,1.9l3.28,1.9v3.79v3.79l-3.28,1.9l-3.28,1.9l-3.28-1.9l-3.28-1.9v-3.79v-3.79l3.28-1.9
		L67.11,17.43L67.11,17.43z M73.69,7.56l-2.63,1.52l-2.63,1.52v3.03v3.03l2.63,1.52l2.63,1.52l2.63-1.52l2.63-1.52v-3.03V10.6
		l-2.63-1.52L73.69,7.56L73.69,7.56z M77.64,31.1l1.98,1.13l1.98,1.14v2.27v2.27l-1.98,1.14l-1.98,1.13l-1.98-1.13l-1.98-1.14v-2.27
		v-2.27l1.98-1.14L77.64,31.1L77.64,31.1z M94.74,18.2l2.63,1.52l2.63,1.52v3.03v3.03l-2.63,1.52l-2.63,1.52l-2.64-1.52l-2.63-1.52
		v-3.03v-3.03l2.63-1.52L94.74,18.2L94.74,18.2z M89.33,1.39l-3.95,2.28l-3.95,2.28v4.55v4.55l3.95,2.28l3.95,2.28l3.95-2.28
		l3.95-2.28V10.5V5.95l-3.95-2.28L89.33,1.39L89.33,1.39z M89.47,28.81l-3.29,1.9l-3.29,1.9v3.8v3.8l3.29,1.9l3.29,1.9l3.29-1.9
		l3.29-1.9v-3.8v-3.8l-3.29-1.9L89.47,28.81z"/>
	<path class="st0" d="M104.57,10.01v7.53c0,1.43,0.22,2.6,0.64,3.51c0.42,0.92,1.03,1.59,1.84,2.03c0.8,0.44,1.77,0.66,2.91,0.65
		c1.18,0,2.19-0.22,3.03-0.67c0.84-0.45,1.48-1.12,1.93-2.04c0.44-0.91,0.67-2.05,0.67-3.44v-7.57h-3.04v7.75
		c0,1.2-0.22,2.09-0.64,2.66c-0.42,0.58-1.04,0.86-1.84,0.86c-0.78,0-1.38-0.29-1.8-0.88c-0.42-0.59-0.64-1.47-0.64-2.64v-7.75
		H104.57L104.57,10.01z M120.1,23.51h3.04v-5.43h4.85V15.6h-4.85v-3.08h5.18v-2.5h-8.23V23.51L120.1,23.51z M143.36,15.8h-5.03v2.38
		h2.08V21c-0.12,0.05-0.32,0.09-0.57,0.13c-0.26,0.03-0.56,0.05-0.91,0.05c-0.63,0-1.2-0.1-1.72-0.29c-0.52-0.2-0.97-0.48-1.35-0.86
		c-0.38-0.38-0.67-0.84-0.88-1.38c-0.21-0.54-0.31-1.16-0.31-1.87c0-0.73,0.12-1.37,0.34-1.92c0.22-0.55,0.54-1.01,0.94-1.37
		c0.41-0.36,0.88-0.64,1.42-0.82c0.54-0.18,1.13-0.27,1.77-0.27c0.49,0,0.93,0.03,1.3,0.07c0.38,0.05,0.71,0.12,1.01,0.21
		c0.3,0.09,0.57,0.19,0.81,0.3l0.64-2.49c-0.22-0.1-0.51-0.19-0.88-0.29c-0.36-0.1-0.78-0.17-1.27-0.24
		c-0.48-0.06-1.02-0.09-1.6-0.1c-1.11,0-2.14,0.16-3.07,0.47c-0.93,0.31-1.75,0.77-2.44,1.37c-0.69,0.6-1.23,1.34-1.61,2.22
		c-0.38,0.88-0.58,1.88-0.59,3.01c0,0.66,0.07,1.29,0.22,1.89c0.15,0.6,0.36,1.15,0.64,1.66c0.28,0.51,0.63,0.96,1.03,1.35
		c0.62,0.59,1.38,1.04,2.29,1.35c0.91,0.3,1.97,0.46,3.2,0.46c0.6,0,1.19-0.05,1.75-0.13c0.57-0.08,1.09-0.18,1.56-0.29
		c0.48-0.12,0.87-0.23,1.19-0.34V15.8z"/>
	<g>
		<path class="st1" d="M104.54,28.09v1.7c0,0.97,0.45,1.4,1.22,1.4c0.8,0,1.27-0.45,1.27-1.39v-1.71h-0.69v1.76
			c0,0.54-0.2,0.8-0.56,0.8c-0.35,0-0.55-0.27-0.55-0.8v-1.76H104.54L104.54,28.09z M109.04,31.14v-0.92c0-0.5-0.01-0.93-0.03-1.34
			h0.02c0.15,0.36,0.35,0.75,0.53,1.08l0.65,1.18h0.73v-3.06h-0.64v0.89c0,0.46,0.01,0.88,0.05,1.28h-0.01
			c-0.14-0.34-0.32-0.73-0.5-1.05l-0.63-1.12h-0.81v3.06H109.04L109.04,31.14z M112.3,28.09v3.06h0.69v-3.06H112.3L112.3,28.09z
			 M115.88,31.14l1.03-3.06h-0.73l-0.39,1.31c-0.1,0.35-0.2,0.71-0.28,1.08h-0.01c-0.07-0.38-0.17-0.72-0.27-1.09l-0.37-1.29h-0.76
			l0.98,3.06H115.88L115.88,31.14z M119.82,29.29h-1.12v-0.63h1.19v-0.57h-1.88v3.06h1.95v-0.57h-1.26v-0.73h1.12V29.29
			L119.82,29.29z M121.19,31.14h0.69v-1.21h0.2c0.29,0,0.42,0.11,0.5,0.49c0.09,0.38,0.16,0.63,0.21,0.72h0.71
			c-0.06-0.12-0.15-0.52-0.25-0.87c-0.08-0.28-0.2-0.48-0.41-0.57v-0.01c0.26-0.1,0.54-0.36,0.54-0.75c0-0.28-0.1-0.49-0.29-0.64
			c-0.22-0.18-0.53-0.24-0.99-0.24c-0.37,0-0.7,0.03-0.92,0.07V31.14L121.19,31.14z M121.88,28.6c0.05-0.01,0.14-0.02,0.31-0.02
			c0.32,0,0.51,0.14,0.51,0.42c0,0.27-0.2,0.44-0.55,0.44h-0.27V28.6L121.88,28.6z M124.53,31c0.17,0.1,0.52,0.19,0.87,0.19
			c0.84,0,1.23-0.44,1.23-0.95c0-0.44-0.25-0.72-0.79-0.92c-0.4-0.16-0.57-0.24-0.57-0.44c0-0.15,0.15-0.29,0.44-0.29
			c0.29,0,0.52,0.09,0.63,0.15l0.15-0.55c-0.18-0.09-0.43-0.15-0.78-0.15c-0.72,0-1.16,0.4-1.16,0.92c0,0.45,0.33,0.73,0.84,0.91
			c0.37,0.13,0.51,0.24,0.51,0.43c0,0.2-0.17,0.34-0.48,0.34c-0.3,0-0.58-0.1-0.77-0.19L124.53,31L124.53,31z M127.87,28.09v3.06
			h0.69v-3.06H127.87L127.87,28.09z M129.92,31.13c0.17,0.02,0.43,0.04,0.79,0.04c0.6,0,1.09-0.13,1.42-0.4
			c0.29-0.25,0.5-0.65,0.5-1.24c0-0.54-0.2-0.92-0.52-1.16c-0.29-0.22-0.67-0.32-1.26-0.32c-0.34,0-0.68,0.02-0.93,0.07V31.13
			L129.92,31.13z M130.61,28.62c0.06-0.01,0.16-0.03,0.31-0.03c0.6,0,0.97,0.31,0.97,0.97c0,0.73-0.41,1.07-1.04,1.07
			c-0.08,0-0.18,0-0.24-0.02V28.62L130.61,28.62z M135.43,30.36l0.24,0.79h0.74l-0.95-3.06h-0.9l-0.94,3.06h0.72l0.21-0.79H135.43
			L135.43,30.36z M134.65,29.84l0.19-0.65c0.05-0.18,0.1-0.41,0.14-0.59h0.01c0.04,0.18,0.1,0.41,0.15,0.59l0.19,0.65H134.65
			L134.65,29.84z M137.58,31.13c0.17,0.02,0.43,0.04,0.78,0.04c0.6,0,1.09-0.13,1.42-0.4c0.29-0.25,0.5-0.65,0.5-1.24
			c0-0.54-0.2-0.92-0.52-1.16c-0.29-0.22-0.67-0.32-1.26-0.32c-0.34,0-0.68,0.02-0.93,0.07V31.13L137.58,31.13z M138.27,28.62
			c0.06-0.01,0.16-0.03,0.31-0.03c0.6,0,0.97,0.31,0.97,0.97c0,0.73-0.41,1.07-1.04,1.07c-0.08,0-0.18,0-0.24-0.02V28.62
			L138.27,28.62z M143.33,29.29h-1.13v-0.63h1.19v-0.57h-1.88v3.06h1.95v-0.57h-1.26v-0.73h1.13V29.29z"/>
		<path class="st1" d="M104.53,36.35h0.69v-1.23h1.1v-0.56h-1.1v-0.7h1.18V33.3h-1.86V36.35L104.53,36.35z M108.61,34.5h-1.13v-0.63
			h1.19V33.3h-1.88v3.06h1.95v-0.57h-1.26v-0.73h1.13V34.5L108.61,34.5z M109.21,36.34c0.17,0.02,0.43,0.05,0.78,0.05
			c0.6,0,1.1-0.12,1.42-0.39c0.29-0.25,0.51-0.65,0.51-1.24c0-0.55-0.2-0.92-0.52-1.16c-0.29-0.22-0.67-0.32-1.26-0.32
			c-0.35,0-0.68,0.02-0.93,0.07V36.34L109.21,36.34z M109.9,33.83c0.06-0.01,0.16-0.03,0.31-0.03c0.6,0,0.97,0.31,0.97,0.97
			c0,0.73-0.41,1.07-1.04,1.07c-0.08,0-0.18,0-0.24-0.01V33.83L109.9,33.83z M114.19,34.5h-1.12v-0.63h1.19V33.3h-1.88v3.06h1.95
			v-0.57h-1.26v-0.73h1.12V34.5L114.19,34.5z M114.79,36.35h0.69v-1.21h0.2c0.29,0,0.42,0.1,0.5,0.49c0.08,0.38,0.16,0.63,0.21,0.71
			h0.71c-0.06-0.12-0.15-0.52-0.25-0.87c-0.08-0.28-0.19-0.48-0.41-0.57v-0.01c0.26-0.1,0.54-0.36,0.54-0.75
			c0-0.28-0.1-0.49-0.29-0.64c-0.22-0.17-0.53-0.24-0.99-0.24c-0.37,0-0.7,0.03-0.92,0.07V36.35L114.79,36.35z M115.48,33.82
			c0.05-0.02,0.15-0.02,0.31-0.02c0.32,0,0.51,0.14,0.51,0.42c0,0.27-0.21,0.44-0.55,0.44h-0.27V33.82L115.48,33.82z M119.11,35.57
			l0.24,0.78h0.74l-0.95-3.06h-0.9l-0.93,3.06h0.72l0.21-0.78H119.11L119.11,35.57z M118.33,35.05l0.19-0.65
			c0.05-0.18,0.1-0.41,0.14-0.59h0.01c0.05,0.18,0.1,0.41,0.15,0.59l0.19,0.65H118.33L118.33,35.05z M120.46,36.35h1.91v-0.58h-1.22
			V33.3h-0.69V36.35L120.46,36.35z M123.82,36.34c0.17,0.02,0.43,0.05,0.79,0.05c0.6,0,1.09-0.13,1.42-0.39
			c0.29-0.25,0.5-0.65,0.5-1.24c0-0.55-0.2-0.93-0.52-1.16c-0.29-0.22-0.67-0.32-1.26-0.32c-0.34,0-0.68,0.02-0.93,0.07V36.34
			L123.82,36.34z M124.51,33.83c0.06-0.01,0.16-0.03,0.31-0.03c0.6,0,0.97,0.31,0.97,0.97c0,0.73-0.41,1.07-1.04,1.07
			c-0.08,0-0.18,0-0.24-0.01V33.83L124.51,33.83z M128.8,34.5h-1.13v-0.63h1.19V33.3h-1.88v3.06h1.95v-0.57h-1.26v-0.73h1.13V34.5
			L128.8,34.5z M133.46,34.61h-1.14v0.54h0.47v0.64c-0.05,0.02-0.18,0.04-0.33,0.04c-0.57,0-0.97-0.36-0.97-1
			c0-0.67,0.44-0.99,1.02-0.99c0.33,0,0.54,0.05,0.71,0.13l0.14-0.56c-0.15-0.06-0.45-0.14-0.85-0.14c-1,0-1.74,0.58-1.75,1.6
			c0,0.45,0.15,0.84,0.43,1.11c0.28,0.27,0.69,0.41,1.24,0.41c0.4,0,0.81-0.1,1.02-0.17V34.61L133.46,34.61z M135.3,36.41
			c0.89,0,1.5-0.61,1.5-1.61c0-0.84-0.51-1.55-1.45-1.55c-0.9,0-1.49,0.68-1.49,1.6C133.86,35.72,134.4,36.41,135.3,36.41
			L135.3,36.41L135.3,36.41z M135.33,35.86c-0.46,0-0.74-0.45-0.74-1.03c0-0.57,0.27-1.03,0.75-1.03c0.48,0,0.73,0.47,0.73,1.02
			C136.07,35.42,135.8,35.86,135.33,35.86L135.33,35.86L135.33,35.86z M137.26,33.3v3.06h0.69V33.3H137.26L137.26,33.3z
			 M140.14,35.57l0.24,0.78h0.74l-0.95-3.06h-0.9l-0.93,3.06h0.72l0.21-0.78H140.14L140.14,35.57z M139.36,35.05l0.19-0.65
			c0.04-0.18,0.1-0.41,0.14-0.59h0.01c0.04,0.18,0.1,0.41,0.15,0.59l0.19,0.65H139.36L139.36,35.05z M139.82,32.56l-0.4,0.57h0.55
			l0.57-0.57H139.82L139.82,32.56z M141.41,36.21c0.17,0.1,0.52,0.19,0.87,0.19c0.84,0,1.23-0.44,1.23-0.95
			c0-0.44-0.25-0.72-0.79-0.92c-0.4-0.15-0.57-0.24-0.57-0.44c0-0.15,0.15-0.29,0.45-0.29c0.29,0,0.52,0.08,0.63,0.15l0.15-0.55
			c-0.18-0.09-0.43-0.15-0.78-0.15c-0.72,0-1.16,0.4-1.16,0.92c0,0.45,0.34,0.73,0.84,0.91c0.37,0.13,0.51,0.24,0.51,0.43
			c0,0.2-0.17,0.34-0.49,0.34c-0.29,0-0.58-0.1-0.77-0.19L141.41,36.21z"/>
	</g>
</g>
</svg>
