<svg xmlns="http://www.w3.org/2000/svg" fill-rule="evenodd" stroke-linejoin="round" stroke-miterlimit="2" clip-rule="evenodd" viewBox="0 0 1621 110">
  <path fill="#212121" d="M1249.8 48.44c21.8-29.2 56.5-48.1 95.8-48.1a119 119 0 0195.7 48.1l.1-.08a102.58 102.58 0 0082.7 41.83c34 0 64.1-16.46 82.8-41.83l13.4 9.9c-21.8 29.47-56.7 48.6-96.2 48.6a119 119 0 01-95.7-48.11l-.1.07A102.58 102.58 0 001345.6 17c-34 0-64.1 16.46-82.8 41.82l-.1-.07a119 119 0 01-95.7 48.1c-39.5 0-74.4-19.12-96.2-48.6l.9-.61A102.69 102.69 0 00988 18c-33.9.85-63.6 18.06-81.6 43.88l-.2-.1a119.02 119.02 0 01-95.7 48.07c-39.2 0-74-18.9-95.8-48.1l-.1.07A102.58 102.58 0 00631.9 20c-33.9 0-64 16.46-82.7 41.82l-.1-.07a119.33 119.33 0 01-95.8 48.1c-39.2 0-74-18.9-95.8-48.1l-.1.07A102.58 102.58 0 00274.7 20c-33.9 0-64 16.46-82.7 41.82l-.1-.07a119.33 119.33 0 01-95.8 48.1c-39.4 0-74.4-19.12-96.1-48.6l13.4-9.89A102.58 102.58 0 0096.1 93.2c34 0 64-16.46 82.7-41.83l.1.08c21.8-29.2 56.6-48.1 95.8-48.1 39.2 0 74 18.9 95.8 48.1l.1-.08a102.58 102.58 0 0082.7 41.83c33.9 0 64-16.46 82.7-41.83l.1.08c21.8-29.2 56.6-48.1 95.8-48.1 39.2 0 74 18.9 95.8 48.1l.1-.08a102.43 102.43 0 0082.7 41.83c33.9 0 64-16.46 82.7-41.83l.1.1a119.38 119.38 0 0194.3-50.12c39.4-.98 74.9 17.25 97.3 46.18l-8.9 6.94 8.3-6.1A102.43 102.43 0 001167 90.2c33.9 0 64-16.46 82.7-41.83l.1.08z"/>
</svg>