<svg xmlns="http://www.w3.org/2000/svg" fill-rule="evenodd" stroke-linejoin="round" stroke-miterlimit="2" clip-rule="evenodd" viewBox="0 0 1451 151"><path fill-rule="nonzero" d="M150.17 75.66a75 75 0 01-75 75 75 75 0 01-75-75 75 75 0 0175-75 75 75 0 0175 75M475.17 75.66a75 75 0 01-75 75 75 75 0 01-75-75 75 75 0 0175-75 75 75 0 0175 75M800.17 75.66a75 75 0 01-75 75 75 75 0 01-75-75 75 75 0 0175-75 75 75 0 0175 75M1125.17 75.66a75 75 0 01-75 75 75 75 0 01-75-75 75 75 0 0175-75 75 75 0 0175 75M1450.17 75.66a75 75 0 01-75 75 75 75 0 01-75-75 75 75 0 0175-75 75 75 0 0175 75"/></svg>