<svg xmlns="http://www.w3.org/2000/svg" fill-rule="evenodd" stroke-linejoin="round" stroke-miterlimit="2" clip-rule="evenodd" viewBox="0 0 1072 309">
  <path fill="#212121" fill-rule="nonzero" d="M83.97 41.63a41.57 41.57 0 11-83.14.01 41.57 41.57 0 0183.14 0M281.44 45.1a41.57 41.57 0 11-83.14 0 41.57 41.57 0 0183.14 0M478.9 48.56a41.57 41.57 0 11-83.14 0 41.57 41.57 0 0183.15 0M676.38 52.03a41.57 41.57 0 11-83.13 0 41.57 41.57 0 0183.13 0M873.85 55.49a41.57 41.57 0 11-83.14.01 41.57 41.57 0 0183.14-.01M1071.32 58.96a41.58 41.58 0 11-83.16-.02 41.58 41.58 0 0183.16.02M83.97 249.5a41.57 41.57 0 11-83.14 0 41.57 41.57 0 0183.14 0M281.44 252.96a41.57 41.57 0 11-83.14 0 41.57 41.57 0 0183.14 0M478.9 256.42a41.58 41.58 0 11-83.14 0 41.58 41.58 0 0183.15 0M676.38 259.89a41.58 41.58 0 11-83.15 0 41.58 41.58 0 0183.15 0M873.85 263.36a41.57 41.57 0 11-83.14 0 41.57 41.57 0 0183.14 0M1071.32 266.82a41.57 41.57 0 11-83.14-.01 41.57 41.57 0 0183.14.01"/>
</svg>