<svg xmlns="http://www.w3.org/2000/svg" fill-rule="evenodd" stroke-linejoin="round" stroke-miterlimit="2" clip-rule="evenodd" viewBox="0 0 603 221">
  <path fill="#212121" fill-rule="nonzero" d="M174.5 88.92l27.29 14.9.82 32.25-28.11 15.7-27.3-15.7v-31.43l27.3-15.72zM144.75 220.42L177 201.39v-38.03l-33.08-19.03-33.07 19.03.82 38.03 33.08 19.03zM84.33 154.26l21.5 11.57v24.81l-21.5 12.41-20.68-12.4v-23.98l20.68-12.41zM33.08 88.92l32.26 18.2v38.04l-32.26 19.02L.83 145.16 0 107.95l33.08-19.03zM66.16 38.48l26.46 14.88v30.6L66.16 98.85 39.7 83.96v-30.6l26.46-14.88zM146.33 98.85l42.17-24.8V24.41L145.5.44l-42.17 24.8v49.63l43 23.98zM260.5 38.48v81.87c0 24.8 9.1 37.22 25.64 37.22 16.53 0 26.46-11.58 26.46-37.22V38.48h32.25v80.22c0 43.82-22.33 64.5-59.55 64.5-35.55 0-57.05-19.84-57.05-65.33V38.48h32.25zM373 38.48h86.83v26.47h-54.58V97.2h51.27v26.46h-51.27v57.06H373V38.48zM602.83 174.1c-9.93 3.31-28.94 8.27-47.97 8.27-25.63 0-44.65-6.61-57.88-19.01-13.23-12.41-19.85-31.43-19.85-52.1 0-47.15 34.73-74.44 81.04-74.44 18.2 0 32.26 3.31 39.7 6.62l-6.62 25.64c-7.44-3.3-17.36-5.8-33.08-5.8-26.46 0-47.13 14.9-47.13 46.32 0 29.77 18.19 46.3 44.66 46.3 7.44 0 13.22-.82 15.7-1.64v-29.77h-22.32V99.67H602v74.44h.83z"/>
</svg>